<svg xmlns="http://www.w3.org/2000/svg" width="3001" height="3001" fill="none" viewBox="0 0 3001 3001" id="payment-card"><g clip-path="url(#clip0_101_35781)"><path fill="#E5E5E5" d="M1083.63 2523.05C1083.63 2500.67 1101.78 2482.53 1124.16 2482.53H2200.23C2222.61 2482.53 2240.75 2500.67 2240.75 2523.05V2862.77C2240.75 2885.15 2222.61 2903.3 2200.23 2903.3H1124.16C1101.78 2903.3 1083.63 2885.15 1083.63 2862.77V2523.05Z"></path><path fill="#53B3CC" d="M1203.86 551.491C1203.86 688.432 1092.84 799.445 955.902 799.445C818.96 799.445 707.948 688.432 707.948 551.491C707.948 414.549 818.96 303.537 955.902 303.537C1092.84 303.537 1203.86 414.549 1203.86 551.491Z"></path><path fill="#FAC22F" d="M600.748 2389.28C651.841 2458.41 659.605 2648.51 657.101 2734.92V2795.03C634.383 2721.78 478.316 2646.37 416.66 2622.21C322.542 2585.33 390.362 2408.07 364.064 2321.66C337.766 2235.25 221.303 2175.14 176.22 2009.84C131.138 1844.54 187.491 1679.23 221.303 1713.05C255.115 1746.86 221.303 1780.67 285.17 1825.75C349.037 1870.84 420.417 1945.97 446.716 2103.76C473.014 2261.55 536.881 2302.88 600.748 2389.28Z"></path><path fill="#53B3CC" d="M792.35 2488.82C717.212 2557.95 668.373 2642.86 653.345 2676.67C653.345 2495.09 669.875 2119.9 735.997 2071.81C818.648 2011.7 829.919 1763.75 890.029 1707.39C950.139 1651.04 1017.76 1485.74 1062.85 1594.69C1107.93 1703.64 1066.6 1898.99 995.221 1966.62C923.841 2034.24 890.029 2086.84 890.029 2154.46C890.029 2222.09 886.272 2402.42 792.35 2488.82Z"></path><path fill="#F15846" d="M457.927 1954.7C389.089 2161.79 420.379 2205.72 507.991 2312.41C559.42 2358.55 627.044 2463.74 653.342 2568.93C766.048 2403.63 839.664 2168.07 727.021 2023.73C614.377 1879.39 708.246 1753.87 701.989 1634.63C695.73 1515.39 589.345 1490.29 520.507 1590.7C451.669 1691.11 526.765 1747.6 457.927 1954.7Z"></path><path fill="#fff" d="M1973.39 254.899C1989.12 238.983 2014.78 238.837 2030.7 254.574L2772.15 987.66C2788.06 1003.4 2788.21 1029.05 2772.47 1044.97L1580.61 2250.43C1564.87 2266.35 1539.21 2266.5 1523.3 2250.76L781.845 1517.67C765.929 1501.94 765.784 1476.28 781.52 1460.36L1973.39 254.899Z"></path><path fill="#53B3CC" fill-rule="evenodd" d="M1967.62 249.2C1986.51 230.101 2017.3 229.927 2036.4 248.81L2777.85 981.896C2796.95 1000.78 2797.12 1031.57 2778.24 1050.67L1586.37 2256.13C1567.49 2275.23 1536.7 2275.41 1517.6 2256.52L776.149 1523.44C757.05 1504.55 756.875 1473.76 775.759 1454.66L1967.62 249.2ZM2025 260.337C2012.27 247.748 1991.74 247.865 1979.15 260.597L787.286 1466.06C774.697 1478.79 774.813 1499.32 787.546 1511.91L1529 2245C1541.73 2257.58 1562.26 2257.47 1574.84 2244.74L2766.71 1039.27C2779.3 1026.54 2779.18 1006.01 2766.45 993.424L2025 260.337Z" clip-rule="evenodd"></path><path fill="#fff" d="M1565.7 251.112C1573.86 230.268 1597.36 219.982 1618.21 228.135L2589.22 607.994C2610.07 616.148 2620.35 639.655 2612.2 660.498L1994.62 2239.19C1986.46 2260.04 1962.96 2270.32 1942.11 2262.17L971.097 1882.31C950.254 1874.16 939.967 1850.65 948.121 1829.81L1565.7 251.112Z"></path><path fill="#3E3D3D" fill-rule="evenodd" d="M1558.15 248.159C1567.94 223.147 1596.15 210.803 1621.16 220.587L2592.18 600.446C2617.19 610.231 2629.53 638.439 2619.75 663.451L2002.17 2242.15C1992.38 2267.16 1964.17 2279.5 1939.16 2269.72L968.145 1889.86C943.133 1880.07 930.789 1851.87 940.573 1826.85L1558.15 248.159ZM1615.25 235.684C1598.58 229.16 1579.77 237.39 1573.25 254.065L955.669 1832.76C949.146 1849.43 957.376 1868.24 974.051 1874.76L1945.07 2254.62C1961.74 2261.15 1980.55 2252.92 1987.07 2236.24L2604.65 657.546C2611.17 640.871 2602.94 622.065 2586.27 615.542L1615.25 235.684Z" clip-rule="evenodd"></path><path fill="#53B3CC" fill-rule="evenodd" d="M2201.83 854.851C2256.28 876.149 2317.68 849.279 2338.98 794.835C2360.27 740.391 2333.4 678.99 2278.96 657.692C2224.52 636.394 2163.12 663.263 2141.82 717.707C2120.52 772.151 2147.39 833.553 2201.83 854.851ZM2195.93 869.947C2258.71 894.507 2329.51 863.522 2354.07 800.741C2378.63 737.96 2347.65 667.156 2284.87 642.596C2222.08 618.036 2151.28 649.021 2126.72 711.802C2102.16 774.583 2133.15 845.387 2195.93 869.947Z" clip-rule="evenodd"></path><path fill="#53B3CC" d="M2308.07 918.336C2283.51 981.117 2212.7 1012.1 2149.92 987.542 2087.14 962.982 2056.15 892.178 2080.71 829.397 2105.27 766.616 2176.08 735.631 2238.86 760.191 2301.64 784.751 2332.63 855.555 2308.07 918.336zM1784.3 293.107L2003.82 378.979 1356.71 2033.15 1137.19 1947.28 1784.3 293.107z"></path><path fill="#D05244" fill-rule="evenodd" d="M559.665 1907.99C564.513 1844.52 575.253 1782.37 583.696 1744.42L599.519 1747.94C591.218 1785.25 580.609 1846.64 575.828 1909.22C571.021 1972.16 572.233 2034.95 586.691 2075.86C591.083 2088.29 595.913 2101.16 600.958 2114.6C639.067 2216.13 689.432 2350.33 655.855 2573.9L639.824 2571.49C672.761 2352.19 623.725 2221.46 585.776 2120.3C580.716 2106.8 575.853 2093.84 571.407 2081.26C555.725 2036.88 554.844 1971.11 559.665 1907.99Z" clip-rule="evenodd"></path><path fill="#3E3D3D" d="M341.074 2511.08C338.436 2496.19 349.891 2482.53 365.016 2482.53H870.184C885.43 2482.53 896.916 2496.4 894.073 2511.38L818.269 2910.81H411.876L341.074 2511.08Z"></path><path fill="#FAC22F" d="M689.163 1006.07C689.163 1091.14 618.519 1160.11 531.374 1160.11C444.23 1160.11 373.585 1091.14 373.585 1006.07C373.585 921.004 444.23 852.041 531.374 852.041C618.519 852.041 689.163 921.004 689.163 1006.07Z"></path><path fill="#fff" fill-rule="evenodd" d="M643.767 974.278L468.641 1086.86L408.953 990.44L443.41 969.11L481.401 1030.48L621.853 940.189L643.767 974.278Z" clip-rule="evenodd"></path><path fill="#3E3D3D" fill-rule="evenodd" d="M-2.69482 2910.81C-2.69482 2906.34 0.93394 2902.71 5.41025 2902.71H2992.13C2996.61 2902.71 3000.23 2906.34 3000.23 2910.81C3000.23 2915.29 2996.61 2918.92 2992.13 2918.92H5.41025C0.93394 2918.92 -2.69482 2915.29 -2.69482 2910.81Z" clip-rule="evenodd"></path><path fill="#EFCB96" fill-rule="evenodd" d="M1791.03 2886.46C1792.77 2832.48 1787.67 2740.62 1756.11 2685.4C1755.65 2684.58 1755.18 2683.77 1754.71 2682.95C1747.67 2670.75 1740.36 2658.96 1732.97 2647.03C1732.97 2647.03 1732.97 2647.03 1732.97 2647.03C1693.28 2582.96 1650.94 2514.63 1632.14 2354.79C1615.32 2211.88 1579.79 1803.13 1560.85 1577.97C1560.71 1576.36 1560.66 1574.76 1560.68 1573.17C1561.02 1549.38 1578.83 1529.09 1603.06 1530.39C1681.43 1534.59 1787.68 1574.18 1804.95 1712.37C1811.99 1768.62 1818.21 1827.29 1824.21 1883.79C1840.63 2038.57 1855.32 2176.99 1880.09 2204.52C1883.47 2208.27 1887.4 2211.56 1891.73 2214.43C1922.07 2234.51 1972.45 2234.1 1996.55 2230.82L2289.59 1471.93C2370.99 1567.1 2562.34 1791.26 2586.38 1851.37C2603.8 1894.91 2601.03 1904.39 2595.63 1922.93C2591.7 1936.39 2586.38 1954.63 2586.38 1994.13C2586.38 2088.05 2586.38 2242.09 2537.55 2336.01C2488.71 2429.93 2439.87 2598.99 2439.87 2907.05H1789.93C1790.4 2901.11 1790.78 2894.17 1791.03 2886.46Z" clip-rule="evenodd"></path><path fill="#fff" fill-rule="evenodd" d="M959.658 365.925C970.848 365.925 979.92 374.997 979.92 386.188V403.97C1025.66 404.51 1062.57 441.756 1062.57 487.624H1022.05C1022.05 463.801 1002.73 444.489 978.912 444.489H944.63C918.473 444.489 897.269 465.693 897.269 491.85C897.269 518.007 918.473 539.211 944.63 539.211H978.912C1025.12 539.211 1062.57 576.667 1062.57 622.871C1062.57 668.739 1025.66 705.985 979.92 706.525V724.307C979.92 735.498 970.848 744.57 959.658 744.57C948.467 744.57 939.395 735.498 939.395 724.307V706.531H931.951C890.415 706.531 856.744 672.86 856.744 631.324H897.269C897.269 650.479 912.797 666.006 931.951 666.006H978.912C1002.73 666.006 1022.05 646.694 1022.05 622.871C1022.05 599.049 1002.73 579.737 978.912 579.737H944.63C896.092 579.737 856.744 540.389 856.744 491.85C856.744 445.069 893.294 406.825 939.395 404.117V386.188C939.395 374.997 948.467 365.925 959.658 365.925Z" clip-rule="evenodd"></path></g><defs><clipPath id="clip0_101_35781"><rect width="3000" height="3000" fill="#fff" transform="translate(.235 .236)"></rect></clipPath></defs></svg>